<svg xmlns="http://www.w3.org/2000/svg" width="70" height="70" fill="none"><path stroke="#171A1F" stroke-linejoin="round" stroke-width="3" d="M58.333 20.417 34.999 8.75 11.666 20.417m46.667 0L34.999 32.083m23.334-11.666v29.166L34.999 61.25m0-29.167L11.666 20.417m23.333 11.666V61.25M11.666 20.417v29.166L34.999 61.25"/><mask id="a" width="70" height="70" x="0" y="0" maskUnits="userSpaceOnUse" style="mask-type:alpha"><path stroke="#171A1F" stroke-linejoin="round" stroke-width="3" d="M58.333 20.417 34.999 8.75 11.666 20.417m46.667 0L34.999 32.083m23.334-11.666v29.166L34.999 61.25m0-29.167L11.666 20.417m23.333 11.666V61.25M11.666 20.417v29.166L34.999 61.25"/></mask><g mask="url(#a)"><path fill="#139D49" d="M4.203 3.506h63v63h-63z"/></g></svg>
