<svg xmlns="http://www.w3.org/2000/svg" width="70" height="70" fill="none"><path stroke="#171A1F" stroke-width="3" d="M11.666 20.417v29.166c0 6.444 10.447 11.667 23.333 11.667 12.887 0 23.334-5.223 23.334-11.667V20.417m-46.667 0c0 6.443 10.447 11.666 23.333 11.666 12.887 0 23.334-5.223 23.334-11.666m-46.667 0c0-6.444 10.447-11.667 23.333-11.667 12.887 0 23.334 5.223 23.334 11.667m0 14.583c0 6.443-10.447 11.667-23.334 11.667-12.886 0-23.333-5.224-23.333-11.667"/><mask id="a" width="70" height="70" x="0" y="0" maskUnits="userSpaceOnUse" style="mask-type:alpha"><path stroke="#171A1F" stroke-width="3" d="M11.666 20.417v29.166c0 6.444 10.447 11.667 23.333 11.667 12.887 0 23.334-5.223 23.334-11.667V20.417m-46.667 0c0 6.443 10.447 11.666 23.333 11.666 12.887 0 23.334-5.223 23.334-11.666m-46.667 0c0-6.444 10.447-11.667 23.333-11.667 12.887 0 23.334 5.223 23.334 11.667m0 14.583c0 6.443-10.447 11.667-23.334 11.667-12.886 0-23.333-5.224-23.333-11.667"/></mask><g mask="url(#a)"><path fill="#139D49" d="M4.203 3.506h63v63h-63z"/></g></svg>