<svg xmlns="http://www.w3.org/2000/svg" width="70" height="70" fill="none"><path stroke="#171A1F" stroke-linecap="round" stroke-linejoin="round" stroke-width="3" d="m28.438 49.583-2.188 8.75-2.917 2.917h23.334l-2.917-2.917-2.188-8.75M8.75 37.917h52.5M14.583 49.583h40.834a5.833 5.833 0 0 0 5.833-5.833V14.583a5.833 5.833 0 0 0-5.833-5.833H14.583a5.833 5.833 0 0 0-5.833 5.833V43.75a5.833 5.833 0 0 0 5.833 5.833Z"/><mask id="a" width="70" height="70" x="0" y="0" maskUnits="userSpaceOnUse" style="mask-type:alpha"><path stroke="#171A1F" stroke-linecap="round" stroke-linejoin="round" stroke-width="3" d="m28.438 49.583-2.188 8.75-2.917 2.917h23.334l-2.917-2.917-2.188-8.75M8.75 37.917h52.5M14.583 49.583h40.834a5.833 5.833 0 0 0 5.833-5.833V14.583a5.833 5.833 0 0 0-5.833-5.833H14.583a5.833 5.833 0 0 0-5.833 5.833V43.75a5.833 5.833 0 0 0 5.833 5.833Z"/></mask><g mask="url(#a)"><path fill="#139D49" d="M4.203 3.506h63v63h-63z"/></g></svg>