<svg xmlns="http://www.w3.org/2000/svg" width="96" height="37" fill="none"><path fill="#000" d="M85.5 36.435a1 1 0 0 0 1.334.465l8.105-3.913a1 1 0 0 0-.87-1.801l-7.204 3.479-3.478-7.204a1 1 0 0 0-1.802.87l3.914 8.104ZM53.504 12.472c8.204-4.796 17.18-2.067 23.71 3.57 3.254 2.811 5.838 6.3 7.339 9.818 1.506 3.53 1.885 6.989.901 9.81l1.889.66c1.202-3.448.676-7.445-.95-11.255-1.632-3.822-4.408-7.554-7.873-10.546-6.91-5.969-16.82-9.165-26.025-3.784l1.01 1.727Z"/><rect width="57.904" height="21" x=".576" y="12.024" fill="#FF4D00" rx="10.5" transform="rotate(-11.74 .576 12.024)"/><path fill="#fff" d="m13.216 23.696-1.213-5.835 2.46-.511c.365-.076.695-.076.988-.001.292.07.534.21.725.421.19.206.318.47.386.794a1.47 1.47 0 0 1-.059.821c-.093.26-.277.488-.551.687l-.082-.392c.288.05.533.137.733.265.2.122.357.274.471.457.12.182.202.383.248.602.114.549.023 1.017-.272 1.405-.29.387-.745.646-1.367.775l-2.467.512Zm.753-1.014 1.614-.335c.308-.065.536-.199.684-.404.147-.21.191-.457.132-.739-.06-.287-.198-.495-.415-.624-.219-.134-.482-.17-.79-.105l-1.614.335.39 1.872Zm-.558-2.687 1.559-.324c.25-.052.437-.164.559-.337a.776.776 0 0 0 .108-.619c-.049-.234-.162-.401-.341-.5-.179-.1-.393-.123-.644-.071l-1.559.324.318 1.527Zm5.091 2.603-1.213-5.835.924-.193 1.213 5.836-.924.192Zm4.75-.89a2.97 2.97 0 0 1-1.198.013 3.017 3.017 0 0 1-1.055-.435 3 3 0 0 1-.81-.828 3.287 3.287 0 0 1-.47-1.161 3.374 3.374 0 0 1-.037-1.242 2.89 2.89 0 0 1 .412-1.083 2.77 2.77 0 0 1 .786-.817 2.93 2.93 0 0 1 1.105-.466 2.799 2.799 0 0 1 1.148-.018c.358.072.674.2.946.383a2.1 2.1 0 0 1 .638.635l-.739.57a1.64 1.64 0 0 0-.755-.643c-.318-.141-.673-.17-1.064-.09a1.96 1.96 0 0 0-.97.488 1.924 1.924 0 0 0-.538.905c-.095.357-.097.753-.007 1.186.09.433.253.797.488 1.091.24.288.527.493.863.614.334.115.695.133 1.081.053a2.04 2.04 0 0 0 .845-.38c.243-.192.42-.425.533-.7.11-.278.132-.58.065-.903l-.083-.4.493.29-2.209.459-.162-.783 2.71-.564.114.549c.089.428.095.827.02 1.197a2.591 2.591 0 0 1-1.169 1.69 2.966 2.966 0 0 1-.98.39Zm4.714-1.077-1.213-5.835 1.911-.398c.606-.125 1.156-.112 1.65.041.5.147.918.414 1.254.802.337.388.565.871.686 1.45.12.575.102 1.11-.05 1.605-.155.49-.431.904-.83 1.242-.392.338-.891.57-1.497.696l-1.911.397Zm.753-1.015 1.003-.208c.412-.086.752-.246 1.019-.482.272-.236.46-.528.561-.876.102-.348.109-.736.02-1.164-.09-.429-.252-.779-.488-1.051a1.826 1.826 0 0 0-.857-.582c-.338-.11-.714-.121-1.126-.036l-1.003.209.871 4.19Zm4.915-.163-1.212-5.835 3.845-.8.171.823-2.921.607.348 1.676 2.765-.575.17.823-2.764.574.352 1.692 2.921-.607.171.823-3.846.799Zm4.05-.842.84-6.262 1.143-.238 3.265 5.41-.987.204-.718-1.215-2.373.493-.183 1.403-.987.205Zm1.265-2.485 1.825-.38-1.669-2.84.259-.053-.415 3.273Zm4.538 1.279-1.212-5.835.924-.193 1.042 5.013 2.522-.524.17.823-3.446.716Z"/><circle cx="52.109" cy="12.038" r="2.5" fill="#F6F6F7" transform="rotate(20.765 52.11 12.038)"/></svg>