<svg width="65" height="40" viewBox="0 0 65 40" fill="none" xmlns="http://www.w3.org/2000/svg">
<g clip-path="url(#clip0_874_2016)">
<path d="M34.604 1.53891C35.4633 0.622265 36.6304 0.1073 37.8457 0.1073C43.3134 0.1073 48.4662 0.107303 53.5405 0.107313C63.7464 0.107335 68.8571 13.2694 61.6404 20.9672L45.9208 37.7349C45.1992 38.5048 43.9652 37.9595 43.9652 36.8709V22.1025L45.7818 20.1647C47.2251 18.6251 46.203 15.9927 44.1617 15.9927H21.0537L34.604 1.53891Z" fill="#3A04FF"/>
<path d="M30.4147 36.5564C29.5555 37.473 28.3884 37.988 27.1731 37.988C21.7054 37.988 16.5527 37.988 11.4783 37.988C1.27235 37.9879 -3.8383 24.8259 3.37838 17.128L19.098 0.360352C19.8197 -0.409436 21.0536 0.135759 21.0536 1.2244L21.0537 15.9927L19.237 17.9306C17.7937 19.4702 18.8159 22.1026 20.8571 22.1026L43.9652 22.1025L30.4147 36.5564Z" fill="#3A04FF"/>
</g>
<defs>
<clipPath id="clip0_874_2016">
<rect width="65" height="40" fill="white"/>
</clipPath>
</defs>
</svg>
