<svg width="166" height="40" viewBox="0 0 166 40" fill="none" xmlns="http://www.w3.org/2000/svg">
<g clip-path="url(#clip0_874_1629)">
<path d="M50.0709 28.608H61.7417V25.0958H54.219V11.8666H50.0709V28.608Z" fill="#2F234F"/>
<path d="M68.6563 26.2665C66.9924 26.2665 66.1252 24.8148 66.1252 22.6372C66.1252 20.4597 66.9924 18.9846 68.6563 18.9846C70.3202 18.9846 71.2107 20.4597 71.2107 22.6372C71.2107 24.8148 70.3202 26.2665 68.6563 26.2665ZM68.6797 28.9826C72.5465 28.9826 75.0775 26.2431 75.0775 22.6372C75.0775 19.0314 72.5465 16.2919 68.6797 16.2919C64.8363 16.2919 62.2584 19.0314 62.2584 22.6372C62.2584 26.2431 64.8363 28.9826 68.6797 28.9826Z" fill="#2F234F"/>
<path d="M81.7707 32.7523C83.5517 32.7523 85.1219 32.3543 86.1765 31.4177C87.1373 30.5514 87.7701 29.2401 87.7701 27.4372V16.6197H84.1142V17.9075H84.0673C83.3643 16.9006 82.2862 16.2684 80.6926 16.2684C77.7164 16.2684 75.6541 18.7504 75.6541 22.2626C75.6541 25.9387 78.1616 27.9523 80.8567 27.9523C82.3097 27.9523 83.2237 27.367 83.9267 26.5709H84.0205V27.765C84.0205 29.2167 83.3408 30.0597 81.7238 30.0597C80.4583 30.0597 79.8255 29.5211 79.6146 28.8889H75.9118C76.2868 31.3943 78.4663 32.7523 81.7707 32.7523ZM81.7472 25.1192C80.3177 25.1192 79.3803 23.9484 79.3803 22.1455C79.3803 20.3192 80.3177 19.1484 81.7472 19.1484C83.3408 19.1484 84.1845 20.5065 84.1845 22.1221C84.1845 23.8079 83.4111 25.1192 81.7472 25.1192Z" fill="#2F234F"/>
<path d="M95.2874 26.2665C93.6235 26.2665 92.7563 24.8148 92.7563 22.6372C92.7563 20.4597 93.6235 18.9846 95.2874 18.9846C96.9513 18.9846 97.8414 20.4597 97.8414 22.6372C97.8414 24.8148 96.9513 26.2665 95.2874 26.2665ZM95.3108 28.9826C99.1772 28.9826 101.708 26.2431 101.708 22.6372C101.708 19.0314 99.1772 16.2919 95.3108 16.2919C91.4674 16.2919 88.8895 19.0314 88.8895 22.6372C88.8895 26.2431 91.4674 28.9826 95.3108 28.9826Z" fill="#2F234F"/>
<path d="M102.824 28.608H106.644V16.6197H102.824V28.608ZM102.824 14.9573H106.644V11.8666H102.824V14.9573Z" fill="#2F234F"/>
<path d="M108.301 32.565H112.121V27.367H112.168C112.918 28.3738 114.019 28.9826 115.566 28.9826C118.707 28.9826 120.792 26.5006 120.792 22.6138C120.792 19.0079 118.847 16.2684 115.66 16.2684C114.019 16.2684 112.848 16.9943 112.027 18.0714H111.957V16.6197H108.301V32.565ZM114.582 26.0323C112.941 26.0323 112.004 24.6977 112.004 22.7543C112.004 20.8109 112.848 19.3358 114.512 19.3358C116.152 19.3358 116.925 20.6938 116.925 22.7543C116.925 24.7914 116.035 26.0323 114.582 26.0323Z" fill="#2F234F"/>
<path d="M127.012 28.9826C130.152 28.9826 132.472 27.6245 132.472 25.0021C132.472 21.9348 129.988 21.3962 127.879 21.045C126.355 20.764 124.996 20.647 124.996 19.804C124.996 19.0548 125.723 18.7036 126.66 18.7036C127.715 18.7036 128.441 19.0314 128.582 20.1084H132.097C131.91 17.7436 130.082 16.2684 126.683 16.2684C123.848 16.2684 121.504 17.5797 121.504 20.1084C121.504 22.9182 123.731 23.4801 125.816 23.8314C127.41 24.1123 128.863 24.2294 128.863 25.3065C128.863 26.0792 128.136 26.5006 126.988 26.5006C125.723 26.5006 124.926 25.9153 124.785 24.7211H121.176C121.293 27.367 123.496 28.9826 127.012 28.9826Z" fill="#2F234F"/>
<path d="M137.661 28.9593C139.325 28.9593 140.379 28.3037 141.246 27.1329H141.317V28.608H144.973V16.6198H141.153V23.3163C141.153 24.7446 140.356 25.728 139.044 25.728C137.825 25.728 137.239 25.0022 137.239 23.691V16.6198H133.443V24.4871C133.443 27.1563 134.895 28.9593 137.661 28.9593Z" fill="#2F234F"/>
<path d="M146.635 28.6079H150.455V21.8879C150.455 20.4597 151.158 19.4528 152.353 19.4528C153.501 19.4528 154.04 20.2021 154.04 21.4899V28.6079H157.86V21.8879C157.86 20.4597 158.54 19.4528 159.758 19.4528C160.907 19.4528 161.446 20.2021 161.446 21.4899V28.6079H165.266V20.8109C165.266 18.1182 163.906 16.2684 161.188 16.2684C159.641 16.2684 158.352 16.924 157.415 18.3757H157.368C156.759 17.0879 155.563 16.2684 153.993 16.2684C152.259 16.2684 151.111 17.0879 150.361 18.3289H150.291V16.6197H146.635V28.6079Z" fill="#2F234F"/>
<path fill-rule="evenodd" clip-rule="evenodd" d="M19.6284 39.3397C30.4143 39.3397 39.1578 30.6038 39.1578 19.8275C39.1578 9.05121 30.4143 0.315308 19.6284 0.315308C8.8426 0.315308 0.098999 9.05121 0.098999 19.8275C0.098999 30.6038 8.8426 39.3397 19.6284 39.3397ZM22.6427 15.391C24.3074 13.7277 24.3074 11.031 22.6427 9.36766C20.978 7.70436 18.2789 7.70436 16.6141 9.36766C14.9494 11.031 14.9494 13.7277 16.6141 15.391L19.6284 18.4026L22.6427 15.391ZM24.0689 22.8392C25.7337 24.5025 28.4327 24.5025 30.0975 22.8392C31.7622 21.1759 31.7622 18.4792 30.0975 16.8159C28.4327 15.1526 25.7337 15.1526 24.0689 16.8159L21.0546 19.8276L24.0689 22.8392ZM22.6427 30.2874C24.3074 28.624 24.3074 25.9274 22.6427 24.264L19.6284 21.2524L16.6141 24.264C14.9494 25.9274 14.9494 28.624 16.6141 30.2874C18.2789 31.9507 20.978 31.9507 22.6427 30.2874ZM9.15931 22.8392C7.49458 21.1759 7.49458 18.4792 9.15931 16.8159C10.8241 15.1526 13.5232 15.1526 15.188 16.8159L18.2022 19.8276L15.188 22.8392C13.5232 24.5025 10.8241 24.5025 9.15931 22.8392Z" fill="#7F57F1"/>
</g>
<defs>
<clipPath id="clip0_874_1629">
<rect width="166" height="40" fill="white"/>
</clipPath>
</defs>
</svg>
