<svg width="45" height="40" viewBox="0 0 45 40" fill="none" xmlns="http://www.w3.org/2000/svg">
<g clip-path="url(#clip0_874_2029)">
<path d="M38.166 32.5523L38.169 32.5557L31.8606 38.0942C30.5672 39.2579 28.8948 39.9171 27.1514 39.9496L27.1367 39.9499H5.51864C4.71838 39.9836 3.92092 39.8337 3.188 39.5118C2.44211 39.1842 1.78317 38.6876 1.26424 38.0609C0.745288 37.4345 0.380931 36.696 0.19985 35.9047C0.0221339 35.1269 0.0259904 34.318 0.211968 33.5417L1.87637 25.0617C2.02443 24.3236 2.41574 23.6554 2.98849 23.1636L3.07011 23.0935C2.89293 22.8259 2.76333 22.5294 2.68734 22.217C2.58654 21.8027 2.58302 21.3716 2.67587 20.9569L4.34358 12.4611L4.34615 12.449C4.67071 10.9245 5.48821 9.54816 6.67354 8.53062L12.4492 3.45973C12.7165 3.15429 13.0099 2.86976 13.3272 2.60965C14.5915 1.57338 16.1648 0.983284 17.8013 0.931046L17.8285 0.930176L39.4728 0.992172C40.2722 0.958919 41.0687 1.10889 41.8008 1.43039C42.5468 1.75797 43.2057 2.2547 43.7246 2.88118C44.2435 3.50756 44.608 4.24606 44.789 5.03772C44.9669 5.81579 44.9628 6.62404 44.7771 7.39992L40.6428 28.5175L40.6369 28.5432C40.2738 30.1124 39.4058 31.5199 38.166 32.5523Z" fill="#03301D"/>
<path d="M39.135 2.9434C39.7037 2.91468 40.2711 3.01955 40.792 3.24944C41.313 3.47933 41.773 3.82787 42.1353 4.26739C42.4975 4.70689 42.752 5.22505 42.8785 5.78054C43.0048 6.33602 42.9996 6.91344 42.8632 7.46654L38.7467 28.5976C38.4575 29.8531 37.7614 30.9777 36.7667 31.7958C35.772 32.6139 34.5346 33.0798 33.2476 33.1207H11.7096C11.1408 33.1491 10.5733 33.0442 10.0522 32.8143C9.53102 32.5844 9.07074 32.236 8.70793 31.7968C8.34512 31.3575 8.0898 30.8395 7.96232 30.2842C7.83485 29.7288 7.83874 29.1512 7.97365 28.5976L9.63581 20.0488C9.73327 19.6315 9.96587 19.2582 10.2974 18.987C10.6289 18.7157 11.0407 18.5617 11.4688 18.5489C15.399 18.6888 19.1738 18.9841 22.6922 20.2508L23.4689 25.1392C23.4879 25.2573 23.5501 25.364 23.6435 25.4386C23.7368 25.5134 23.8544 25.5507 23.9738 25.5434C24.1108 25.541 24.2448 25.5024 24.3621 25.4314C24.4794 25.3605 24.5759 25.2596 24.6418 25.1392L27.298 20.2508L32.6107 18.5722C32.7392 18.531 32.8549 18.4572 32.9461 18.3577C33.0374 18.2581 33.1012 18.1366 33.1311 18.005C33.1615 17.8885 33.1472 17.7649 33.0911 17.6584C33.0351 17.552 32.9413 17.4705 32.8281 17.4299L28.1679 15.7588L27.3913 10.8706C27.3723 10.7519 27.3103 10.6443 27.2173 10.5684C27.1242 10.4924 27.0064 10.4534 26.8864 10.4587C26.7485 10.4619 26.614 10.5017 26.4966 10.574C26.3792 10.6464 26.2832 10.7488 26.2184 10.8706L23.5621 15.7588C19.7102 16.8644 15.7246 17.4346 11.7174 17.4532C11.525 17.4696 11.3315 17.4399 11.1528 17.3668C10.9741 17.2939 10.8153 17.1795 10.6894 17.0331C10.5635 16.8866 10.4742 16.7123 10.4288 16.5246C10.3834 16.3369 10.3831 16.141 10.428 15.9531L12.0902 7.40431C12.3777 6.14942 13.0724 5.0251 14.0658 4.20686C15.0593 3.38861 16.2955 2.92261 17.5815 2.88135L39.135 2.9434Z" fill="#86EE02"/>
</g>
<defs>
<clipPath id="clip0_874_2029">
<rect width="45" height="40" fill="white"/>
</clipPath>
</defs>
</svg>
