<svg xmlns="http://www.w3.org/2000/svg" width="495" height="461" fill="none"><g clip-path="url(#a)"><path fill="#fff" d="M652.946-89.559h-814.145v814.145h814.145V-89.559Z"/><path fill="#F8F8F8" d="M487.017 433.49c0 10.74-107.234 9.367-239.516 9.367-132.281 0-239.517 1.373-239.517-9.367 0-10.742 107.235-19.447 239.517-19.447 132.282-.002 239.516 8.705 239.516 19.447Z"/><path fill="#27AAE1" d="M331.633 169.127c0 48.144-39.028 87.171-87.17 87.171-48.144 0-87.174-39.026-87.174-87.171 0-48.143 39.03-87.172 87.174-87.172 48.142.002 87.17 39.029 87.17 87.172Z"/><path fill="#005843" d="M302.424 97.455c0 45.637-36.996 82.634-82.635 82.634-45.636 0-82.633-36.997-82.633-82.634 0-45.636 36.997-82.633 82.633-82.633 45.641 0 82.635 36.997 82.635 82.633Z"/><path fill="#005843" d="M349.389 92.112c0 25.229-20.453 45.678-45.683 45.678-25.224 0-45.679-20.449-45.679-45.678 0-25.229 20.455-45.678 45.679-45.678 25.23 0 45.683 20.45 45.683 45.678Z"/><path fill="#005843" d="M273.393 157.366c0 46.572-37.754 84.324-84.324 84.324-46.573 0-84.323-37.752-84.323-84.324 0-46.569 37.752-84.321 84.323-84.321 46.572 0 84.324 37.753 84.324 84.321Z"/><path fill="#005843" d="M393.343 163.544c0 42.985-34.842 77.829-77.829 77.829-42.983 0-77.83-34.844-77.83-77.829 0-42.982 34.845-77.827 77.83-77.827 42.987.001 77.829 34.845 77.829 77.827Z"/><path fill="#231F20" d="m288.573 70.343.045-.023H184.023v163.35l152.172.736-19.148-135.41-28.474-28.653Z" opacity=".2"/><path fill="#F1F2F2" d="m282.762 68.384.046-.02H178.215v163.349h135.719V99.555l-31.172-31.17Z"/><path fill="#E6E7E8" d="M289.709 80.957H186.031v1.785h103.678v-1.785Zm16.809 16.066H186.031v1.785h120.487v-1.785Zm0 16.063H186.031v1.785h120.487v-1.785Zm0 16.064H186.031v1.785h120.487v-1.785Zm0 16.067H186.031v1.784h120.487v-1.784Zm0 16.064H186.031v1.785h120.487v-1.785Zm0 16.065H186.031v1.784h120.487v-1.784Zm0 16.066H186.031v1.785h120.487v-1.785Zm0 16.065H186.031v1.786h120.487v-1.786Zm0 16.062H186.031v1.786h120.487v-1.786Z"/><path fill="#fff" d="M313.947 99.568h-31.185V68.385l31.185 31.183Zm-78.772 26.826c0 10.545-8.547 19.093-19.093 19.093-10.545 0-19.094-8.548-19.094-19.093s8.549-19.093 19.094-19.093c10.546 0 19.093 8.548 19.093 19.093Z"/><path fill="#414042" d="M230.235 126.393c0 7.817-6.339 14.154-14.154 14.154-7.816 0-14.155-6.337-14.155-14.154 0-7.818 6.339-14.157 14.155-14.157 7.815 0 14.154 6.339 14.154 14.157Z"/><path fill="#fff" d="M216.632 116.627a4.827 4.827 0 1 1-4.826-4.828 4.826 4.826 0 0 1 4.826 4.828Zm-7.271 10.078a2.4 2.4 0 1 1-4.8 0 2.4 2.4 0 0 1 4.8 0Zm6.561 6.506a3.661 3.661 0 0 1-3.66 3.664 3.661 3.661 0 0 1-3.66-3.664 3.66 3.66 0 1 1 7.32 0Zm12.378-4.514c-4.229.658-4.759 1.189-5.416 5.416-.656-4.227-1.188-4.758-5.415-5.416 4.228-.656 4.759-1.187 5.415-5.414.657 4.227 1.187 4.76 5.416 5.414Zm68.156-2.303c0 10.545-8.548 19.093-19.093 19.093s-19.093-8.548-19.093-19.093 8.548-19.093 19.093-19.093 19.093 8.548 19.093 19.093Z"/><path fill="#414042" d="M291.517 126.395c0 7.817-6.336 14.154-14.153 14.154-7.819 0-14.153-6.337-14.153-14.154 0-7.818 6.336-14.157 14.153-14.157 7.819 0 14.153 6.339 14.153 14.157Z"/><path fill="#fff" d="M277.91 116.629a4.828 4.828 0 1 1-9.657 0 4.828 4.828 0 0 1 9.657 0Zm-7.272 10.076a2.398 2.398 0 1 1-4.797.003 2.398 2.398 0 0 1 4.797-.003Zm6.569 6.506a3.661 3.661 0 1 1-7.324 0 3.663 3.663 0 0 1 7.324 0Zm12.374-4.514c-4.228.658-4.761 1.189-5.415 5.416-.657-4.227-1.189-4.758-5.416-5.416 4.227-.656 4.759-1.187 5.416-5.414.654 4.227 1.187 4.76 5.415 5.414Z"/><path fill="#414042" d="M271.711 180.881a2.843 2.843 0 0 1-2.845-2.845c0-12.21-9.937-22.144-22.146-22.144-12.21 0-22.146 9.934-22.146 22.144a2.846 2.846 0 0 1-5.691 0c0-15.348 12.487-27.837 27.837-27.837s27.836 12.488 27.836 27.837a2.843 2.843 0 0 1-2.845 2.845Z"/><path fill="#B2875D" d="M405.912 432.185H85.992l.018-246.55H405.9l.013 246.55Z"/><path fill="#fff" d="M118.671 288.793h-32.5v17.825h32.5v-17.825Zm0 41.516h-32.5v17.826h32.5v-17.826Zm0 41.519h-32.5v17.825h32.5v-17.825Zm287.182-83.035h-32.498v17.825h32.498v-17.825Zm0 41.516h-32.498v17.826h32.498v-17.826Zm0 41.521h-32.498v17.825h32.498V371.83Z" opacity=".1"/><path fill="#C49A6C" d="m467.788 251.585-65.808-61.806 3.92-4.144 65.786 61.801-3.898 4.149Zm-443.655 0 65.808-61.806-3.931-4.144-65.772 61.801 3.895 4.149Z"/><path fill="#C49A6C" d="M427.254 267.608H64.648l21.36-81.973h319.889l21.357 81.973Z"/><path fill="#000" d="M206.895 377.387h-11.273v-14.893h-31.647v-9.929l32.785-41.679h10.135v42.92h9.205v8.688h-9.205v14.893Zm-33.302-23.581h22.029v-28.958l-22.029 28.958Zm73.218 24.925c-16.651 0-26.269-12.824-26.269-34.543 0-22.236 9.825-34.647 26.269-34.647 16.548 0 26.166 12.825 26.166 34.647 0 22.236-9.825 34.543-26.166 34.543Zm0-9.411c9.618 0 14.893-8.895 14.893-25.132 0-16.134-5.378-25.235-14.893-25.235-9.618 0-14.996 8.894-14.996 25.235 0 15.927 5.378 25.132 14.996 25.132Zm74.666 8.067h-11.273v-14.893h-31.647v-9.929l32.785-41.679h10.135v42.92h9.205v8.688h-9.205v14.893Zm-33.302-23.581h22.029v-28.958l-22.029 28.958Z"/></g><defs><clipPath id="a"><path fill="#fff" d="M0 0h495v460.806H0z"/></clipPath></defs></svg>