<svg width="47" height="40" viewBox="0 0 47 40" fill="none" xmlns="http://www.w3.org/2000/svg">
<g clip-path="url(#clip0_874_2075)">
<path d="M20 40C31.046 40 40 31.046 40 20V6C40 4.4087 39.3679 2.88258 38.2427 1.75736C37.1175 0.632141 35.5913 0 34 0L21 0V8.774C21 10.776 21.122 12.85 22.172 14.554C22.9237 15.7752 23.9293 16.8204 25.1205 17.6188C26.3118 18.4171 27.6608 18.9499 29.076 19.181L29.459 19.243C29.6169 19.297 29.754 19.399 29.8511 19.5347C29.9481 19.6704 30.0003 19.8331 30.0003 20C30.0003 20.1669 29.9481 20.3296 29.8511 20.4653C29.754 20.601 29.6169 20.703 29.459 20.757L29.076 20.819C27.0082 21.1568 25.0987 22.1356 23.6172 23.6171C22.1356 25.0987 21.1568 27.0082 20.819 29.076L20.757 29.459C20.7031 29.6169 20.6011 29.754 20.4653 29.851C20.3296 29.9481 20.1669 30.0003 20 30.0003C19.8332 30.0003 19.6705 29.9481 19.5348 29.851C19.399 29.754 19.297 29.6169 19.243 29.459L19.181 29.076C18.9499 27.6607 18.4171 26.3118 17.6188 25.1205C16.8204 23.9293 15.7752 22.9237 14.554 22.172C12.85 21.122 10.776 21 8.77405 21H0.0240479C0.547048 31.581 9.29005 40 20 40Z" fill="#0E1534"/>
<path fill-rule="evenodd" clip-rule="evenodd" d="M8.774 19H0V6C0 4.4087 0.632141 2.88258 1.75736 1.75736C2.88258 0.632141 4.4087 0 6 0H19V8.774C19 10.776 18.878 12.85 17.828 14.554C17.0073 15.886 15.886 17.0073 14.554 17.828C12.85 18.878 10.776 19 8.774 19ZM45.8692 3.41421C46.2443 3.03914 46.455 2.53043 46.455 2C46.455 1.46957 46.2443 0.960859 45.8692 0.585786C45.4941 0.210714 44.9854 0 44.455 0C43.9246 0 43.4159 0.210714 43.0408 0.585786C42.6657 0.960859 42.455 1.46957 42.455 2C42.455 2.53043 42.6657 3.03914 43.0408 3.41421C43.4159 3.78929 43.9246 4 44.455 4C44.9854 4 45.4941 3.78929 45.8692 3.41421Z" fill="#0E1534"/>
</g>
<defs>
<clipPath id="clip0_874_2075">
<rect width="47" height="40" fill="white"/>
</clipPath>
</defs>
</svg>
