<svg xmlns="http://www.w3.org/2000/svg" width="54" height="183" fill="none"><path fill="#005843" d="M3.642 1.183a1.5 1.5 0 0 0-2.33 1.89l2.33-1.89Zm23.253 91.359-1.324-.705 1.324.705ZM16.337 72.937l-.593-1.378.593 1.378Zm9.528 4.722-1.175.933 1.175-.933Zm17.675 39.397-1.466.315 1.466-.315Zm-5.4 64.432a1.5 1.5 0 0 0 1.96.812l12.472-5.167a1.5 1.5 0 1 0-1.148-2.771l-11.087 4.592-4.592-11.086a1.5 1.5 0 1 0-2.772 1.148l5.167 12.472ZM1.31 3.072c10.11 12.473 20.511 26.589 26.21 41.665 5.678 15.019 6.664 30.913-1.95 47.1l2.649 1.41c9.114-17.128 8.011-33.955 2.108-49.571-5.882-15.56-16.555-29.993-26.686-42.493l-2.33 1.89Zm24.26 88.765c-2.708 5.09-5.609 6.501-7.879 6.385-2.39-.122-4.858-1.954-6.587-4.961-1.705-2.968-2.493-6.777-1.739-10.283.74-3.44 2.98-6.69 7.563-8.663l-1.186-2.756c-5.473 2.357-8.365 6.397-9.31 10.788-.93 4.324.046 8.885 2.071 12.409 2.003 3.485 5.234 6.267 9.035 6.462 3.919.201 7.698-2.367 10.68-7.971l-2.648-1.41Zm-8.64-17.523c1.61-.693 2.856-.402 4.052.4 1.312.88 2.471 2.32 3.708 3.878l2.35-1.866c-1.164-1.464-2.613-3.313-4.386-4.503-1.89-1.268-4.208-1.828-6.91-.664l1.186 2.755Zm7.76 4.278c8.876 11.172 14.378 24.797 17.384 38.779l2.933-.63c-3.075-14.306-8.734-28.392-17.968-40.015l-2.349 1.866Zm17.384 38.779c4.541 21.126 4.33 43.017-3.934 62.969l2.771 1.148c8.56-20.665 8.726-43.208 4.096-64.747l-2.933.63Z"/></svg>