<svg xmlns="http://www.w3.org/2000/svg" width="131" height="37" fill="none"><g clip-path="url(#a)"><rect width="35" height="35" y="1" fill="#005843" rx="17.5"/><g filter="url(#b)" opacity=".24"><ellipse cx="17.5" cy="30.413" fill="#58FFD7" rx="9.962" ry="28.438" transform="rotate(-90 17.5 30.413)"/></g><path fill="#fff" fill-rule="evenodd" d="M18.682 11.478 20.047 9.4l3.868 1.965-1.364 2.077c-.24.365.12.808.59.728l2.613-.444.846 3.858-2.614.443c-4.229.717-7.457-3.269-5.304-6.549m-2.363 14.044L14.954 27.6l-3.869-1.963 1.364-2.078c.24-.365-.118-.808-.589-.728l-2.614.443-.846-3.857 2.615-.443c4.228-.717 7.456 3.269 5.304 6.548m.117-14.044L15.072 9.4l-3.868 1.965 1.364 2.077c.24.365-.119.808-.59.728l-2.614-.444-.845 3.858 2.614.443c4.23.717 7.457-3.269 5.303-6.549m2.133 14.044 1.363 2.078 3.87-1.963-1.365-2.078c-.24-.365.119-.808.589-.728l2.614.443.846-3.857-2.614-.443c-4.23-.717-7.457 3.269-5.304 6.548Z" clip-rule="evenodd"/></g><rect width="34.067" height="34.067" x=".467" y="1.467" stroke="#fff" stroke-width=".933" rx="17.033"/><path fill="#000" d="M44.762 14.23c0 4.89 12.21.93 12.21 9.27 0 4.11-3.36 6.45-7.98 6.45-4.65 0-7.95-2.16-8.73-6.6h4.23c.51 2.16 2.07 3.36 4.53 3.36 2.52 0 3.81-1.05 3.81-2.7 0-5.19-12.18-1.29-12.18-9.42 0-3.24 2.67-5.94 7.5-5.94 4.11 0 7.59 1.98 8.25 6.57h-4.29c-.48-2.28-1.89-3.33-4.08-3.33-2.04 0-3.27.93-3.27 2.34m18.034 4.47h-3.87c.51-3.57 3.12-5.73 7.17-5.73 4.47 0 6.75 2.64 6.75 6.36v6.24c0 1.98.18 3.09.48 3.93h-3.99c-.21-.54-.3-1.32-.33-2.19-1.32 1.86-3.3 2.64-5.22 2.64-3.15 0-5.4-1.56-5.4-4.65 0-2.19 1.23-3.84 3.69-4.65 2.13-.72 4.2-.9 6.9-.93v-.39c0-2.07-.99-3.18-3.12-3.18-1.83 0-2.82 1.02-3.06 2.55m-.54 6.39c0 1.23.96 2.01 2.52 2.01 2.37 0 4.2-1.92 4.2-4.32v-.69c-5.46.09-6.72 1.38-6.72 3M79.748 36.1h-3.84V13.42h3.84v1.83c1.02-1.47 2.46-2.28 4.23-2.28 4.2 0 6.78 3.21 6.78 8.46 0 5.46-2.64 8.52-6.78 8.52-1.77 0-3.24-.75-4.23-2.19zm3.54-19.95c-2.31 0-3.54 1.86-3.54 5.28s1.29 5.34 3.54 5.34c2.28 0 3.51-1.89 3.51-5.34 0-3.39-1.26-5.28-3.51-5.28m9.657-4.53V7.9h3.84v3.72zm0 17.88V13.42h3.84V29.5zm20.673-10.38h-3.84c-.36-2.1-1.62-2.97-3.24-2.97-2.37 0-3.63 1.89-3.63 5.34 0 3.39 1.32 5.28 3.75 5.28 1.65 0 2.82-.9 3.21-2.73h3.87c-.72 4.02-3.54 5.91-7.17 5.91-4.74 0-7.62-3.24-7.62-8.46 0-5.46 2.97-8.52 7.59-8.52 3.66 0 6.54 2.04 7.08 6.15m2.179 10.38V7.9h3.84v12.24l5.82-6.72h4.5l-6.48 7.14 6.93 8.94h-4.71l-6.06-7.77v7.77z"/><defs><clipPath id="a"><rect width="35" height="35" y="1" fill="#fff" rx="17.5"/></clipPath><filter id="b" width="86.218" height="49.267" x="-25.609" y="5.78" color-interpolation-filters="sRGB" filterUnits="userSpaceOnUse"><feFlood flood-opacity="0" result="BackgroundImageFix"/><feBlend in="SourceGraphic" in2="BackgroundImageFix" result="shape"/><feGaussianBlur result="effect1_foregroundBlur_20802_4993" stdDeviation="7.336"/></filter></defs></svg>