<svg width="145" height="65" viewBox="0 0 145 65" fill="none" xmlns="http://www.w3.org/2000/svg">
<path d="M76.6289 0.576172H98.5576L109.983 20.3955L121.058 0.576172H142.767L122.728 31.7773L144.656 65H122.288L109.588 44.3018L96.8437 65H74.6074L96.8437 31.4258L76.6289 0.576172Z" fill="#B54D2C"/>
<path d="M0.799988 46V17.28H7.47999C11.08 17.28 12.88 19.12 12.88 22.8V41.84C12.88 44.6133 11.3467 46 8.27999 46H0.799988ZM4.63999 42.52H7.51999C8.53332 42.52 9.03999 42.0933 9.03999 41.24V22.84C9.03999 21.4533 8.46665 20.76 7.31999 20.76H4.63999V42.52Z" fill="white"/>
<path d="M16.2687 46V17.28H20.1087V46H16.2687Z" fill="white"/>
<path d="M29.6106 35.48V32H35.4506V46H27.9306C24.9706 46 23.4906 44.3867 23.4906 41.16V22.2C23.4906 18.92 24.9706 17.28 27.9306 17.28H30.5706C33.8239 17.28 35.4506 18.9467 35.4506 22.28V25.4H31.6106V22.84C31.6106 21.4533 31.0639 20.76 29.9706 20.76H29.0106C27.8906 20.76 27.3306 21.4533 27.3306 22.84V40.44C27.3306 41.8267 27.8906 42.52 29.0106 42.52H31.6106V35.48H29.6106Z" fill="white"/>
<path d="M38.5734 46V17.28H42.4134V46H38.5734Z" fill="white"/>
<path d="M52.1153 20.76V46H48.2753V20.76H44.5953V17.28H55.7953V20.76H52.1153Z" fill="white"/>
<path d="M61.6275 46H57.7875V22.2C57.7875 18.92 59.3208 17.28 62.3875 17.28H65.2675C68.3342 17.28 69.8675 18.92 69.8675 22.2V46H66.0275V35.48H61.6275V46ZM66.0275 32V22.44C66.0275 21.32 65.4675 20.76 64.3475 20.76H63.3075C62.1875 20.76 61.6275 21.32 61.6275 22.44V32H66.0275Z" fill="white"/>
<path d="M82.3809 46H73.2609V17.28H77.1009V42.52H82.3809V46Z" fill="white"/>
</svg>
