<svg xmlns="http://www.w3.org/2000/svg" width="32" height="33" fill="none"><g stroke="#fff" stroke-linecap="round" stroke-linejoin="round" stroke-width="2.5"><path d="M5.36 8.627a13.289 13.289 0 0 0-2.694 8.04c0 7.36 5.973 13.334 13.333 13.334s13.334-5.974 13.334-13.334c0-7.36-5.974-13.333-13.334-13.333"/><path d="M6.666 16.667a9.327 9.327 0 0 0 9.333 9.334 9.327 9.327 0 0 0 9.334-9.334 9.327 9.327 0 0 0-9.334-9.333"/><path d="M16 22a5.332 5.332 0 0 0 5.333-5.333A5.332 5.332 0 0 0 16 11.334"/></g></svg>