<svg xmlns="http://www.w3.org/2000/svg" width="32" height="33" fill="none"><g stroke="#fff" stroke-linecap="round" stroke-linejoin="round" stroke-width="2.5"><path d="M13.333 27.335a2.667 2.667 0 1 0 5.333 0 2.667 2.667 0 0 0-5.333 0Zm10.667 0a2.667 2.667 0 1 0 5.334 0 2.667 2.667 0 0 0-5.333 0Zm-21.333 0a2.667 2.667 0 1 0 5.333 0 2.667 2.667 0 0 0-5.333 0ZM13.333 6a2.667 2.667 0 1 0 5.333 0 2.667 2.667 0 0 0-5.333 0ZM16 8.668v16"/><path d="M26.666 24.667v-5.333c0-2.667-1.333-4-4-4H9.333c-2.667 0-4 1.333-4 4v5.333"/></g></svg>